HIERARCHY
ROOT Hips
{
	OFFSET 0.000000 0.000000 0.000000
	CHANNELS 6 Xposition Yposition Zposition Zrotation Yrotation Xrotation 
	JOINT LHipJoint
	{
		OFFSET 0.000000 0.000000 0.000000
		CHANNELS 3 Zrotation Yrotation Xrotation
		JOINT LeftUpLeg
		{
			OFFSET 1.363060 -1.794630 0.839290
			CHANNELS 3 Zrotation Yrotation Xrotation
			JOINT LeftLeg
			{
				OFFSET 2.448110 -6.726130 0.000000
				CHANNELS 3 Zrotation Yrotation Xrotation
				JOINT LeftFoot
				{
					OFFSET 2.562200 -7.039590 0.000000
					CHANNELS 3 Zrotation Yrotation Xrotation
					JOINT LeftToeBase
					{
						OFFSET 0.157640 -0.433110 2.322550
						CHANNELS 3 Zrotation Yrotation Xrotation
						End Site
						{
							OFFSET 0.000000 0.000000 0.000000
						}
					}
				}
			}
		}
	}
	JOINT RHipJoint
	{
		OFFSET 0.000000 0.000000 0.000000
		CHANNELS 3 Zrotation Yrotation Xrotation
		JOINT RightUpLeg
		{
			OFFSET -1.305520 -1.794630 0.839290
			CHANNELS 3 Zrotation Yrotation Xrotation
			JOINT RightLeg
			{
				OFFSET -2.542530 -6.985550 0.000000
				CHANNELS 3 Zrotation Yrotation Xrotation
				JOINT RightFoot
				{
					OFFSET -2.568260 -7.056230 0.000000
					CHANNELS 3 Zrotation Yrotation Xrotation
					JOINT RightToeBase
					{
						OFFSET -0.164730 -0.452590 2.363150
						CHANNELS 3 Zrotation Yrotation Xrotation
						End Site
						{
							OFFSET 0.000000 0.000000 0.000000
						}
					}
				}
			}
		}
	}
	JOINT LowerBack
	{
		OFFSET 0.000000 0.000000 0.000000
		CHANNELS 3 Zrotation Yrotation Xrotation
		JOINT Spine
		{
			OFFSET 0.028270 2.035590 -0.193380
			CHANNELS 3 Zrotation Yrotation Xrotation
			JOINT Spine1
			{
				OFFSET 0.056720 2.048850 -0.042750
				CHANNELS 3 Zrotation Yrotation Xrotation
				JOINT Neck
				{
					OFFSET 0.000000 0.000000 0.000000
					CHANNELS 3 Zrotation Yrotation Xrotation
					JOINT Neck1
					{
						OFFSET -0.054170 1.746240 0.172020
						CHANNELS 3 Zrotation Yrotation Xrotation
						JOINT Head
						{
							OFFSET 0.104070 1.761360 -0.123970
							CHANNELS 3 Zrotation Yrotation Xrotation
							End Site
							{
								OFFSET 0.000000 0.000000 0.000000
							}
						}
					}
				}
				JOINT LeftShoulder
				{
					OFFSET 0.000000 0.000000 0.000000
					CHANNELS 3 Zrotation Yrotation Xrotation
					JOINT LeftArm
					{
						OFFSET 3.362410 1.200890 -0.311210
						CHANNELS 3 Zrotation Yrotation Xrotation
						JOINT LeftForeArm
						{
							OFFSET 4.983000 -0.000000 -0.000000
							CHANNELS 3 Zrotation Yrotation Xrotation
							JOINT LeftHand
							{
								OFFSET 3.483560 -0.000000 -0.000000
								CHANNELS 3 Zrotation Yrotation Xrotation
								JOINT LeftFingerBase
								{
									OFFSET 0.000000 0.000000 0.000000
									CHANNELS 3 Zrotation Yrotation Xrotation
									JOINT LeftHandIndex1
									{
										OFFSET 0.715260 -0.000000 -0.000000
										CHANNELS 3 Zrotation Yrotation Xrotation
										End Site
										{
											OFFSET 0.000000 0.000000 0.000000
										}
									}
								}
								JOINT LThumb
								{
									OFFSET 0.000000 0.000000 0.000000
									CHANNELS 3 Zrotation Yrotation Xrotation
									End Site
									{
										OFFSET 0.000000 0.000000 0.000000
									}
								}
							}
						}
					}
				}
				JOINT RightShoulder
				{
					OFFSET 0.000000 0.000000 0.000000
					CHANNELS 3 Zrotation Yrotation Xrotation
					JOINT RightArm
					{
						OFFSET -3.136600 1.374050 -0.404650
						CHANNELS 3 Zrotation Yrotation Xrotation
						JOINT RightForeArm
						{
							OFFSET -5.241900 -0.000000 -0.000000
							CHANNELS 3 Zrotation Yrotation Xrotation
							JOINT RightHand
							{
								OFFSET -3.444170 -0.000000 -0.000000
								CHANNELS 3 Zrotation Yrotation Xrotation
								JOINT RightFingerBase
								{
									OFFSET 0.000000 0.000000 0.000000
									CHANNELS 3 Zrotation Yrotation Xrotation
									JOINT RightHandIndex1
									{
										OFFSET -0.622530 -0.000000 -0.000000
										CHANNELS 3 Zrotation Yrotation Xrotation
										End Site
										{
											OFFSET 0.000000 0.000000 0.000000
										}
									}
								}
								JOINT RThumb
								{
									OFFSET 0.000000 0.000000 0.000000
									CHANNELS 3 Zrotation Yrotation Xrotation
									End Site
									{
										OFFSET 0.000000 0.000000 0.000000
									}
								}
							}
						}
					}
				}
			}
		}
	}
}
MOTION
Frames: 4
Frame Time: 0.008333
-10.856415 16.531214 -0.321023 -18.128943 74.699435 -1.447897 -9.119018 -0.499918 0.148891 -13.272705 6.904865 -51.268629 -2.044863 1.288263 25.513617 2.291434 12.151909 0.667846 2.514700 -0.000000 -18.923600 10.458504 -2.528033 -2.235529 1.420826 -6.252682 -1.499974 1.498336 -1.998325 27.859171 1.058640 13.515478 7.390117 2.931600 -0.000000 -93.979000 -5.048603 1.024922 2.491027 -1.730329 1.343261 -2.303954 -5.619462 1.313229 1.526195 7.867736 -4.702536 -6.341509 -2.513940 -0.202191 0.218181 0.000000 0.000000 0.000000 -7.537088 15.978339 1.777032 -63.851397 20.509894 7.803931 -4.165502 -25.913772 -0.024978 -10.038374 3.915496 -0.351411 -0.075273 -0.110546 -0.000000 0.000000 0.000000 0.000000 0.000000 0.000000 0.000000 9.802272 0.044377 1.146483 40.473919 22.215142 15.513012 1.100254 69.226480 0.033431 12.227129 7.996496 0.895834 -0.144609 -0.256096 0.000000 0.000000 0.000000 0.000000 0.000000 0.000000 0.000000 
-10.665343 16.534809 -0.337607 -16.849569 74.811732 -0.320584 -9.131578 -0.438362 0.098481 -13.552597 6.532291 -51.084772 -1.981099 1.413183 27.133190 2.351677 12.384653 -0.092037 2.368300 -0.000000 -17.351200 10.635787 -2.511205 -2.325304 0.542834 -6.866265 -2.775658 1.148501 -2.243044 30.815651 0.927778 13.748549 9.934064 3.613600 -0.000000 -95.178600 -5.579621 0.922660 2.561599 -1.850588 1.264596 -2.308430 -5.724721 1.234875 1.474225 7.985641 -4.698566 -6.263771 -2.589445 -0.208468 0.234354 0.000000 0.000000 0.000000 -7.540021 15.560213 1.821600 -64.134059 19.582480 6.853181 -4.206282 -24.638601 -0.024108 -9.801172 4.133983 -0.361100 -0.077884 -0.105429 -0.000000 0.000000 0.000000 0.000000 0.000000 0.000000 0.000000 10.149563 0.001874 1.069042 41.765074 21.480901 15.395668 1.132094 69.001008 0.033586 12.146417 7.996487 0.889566 -0.139809 -0.255014 -0.000000 0.000000 0.000000 0.000000 0.000000 0.000000 0.000000 
-10.478209 16.540895 -0.356866 -15.623687 74.979766 0.764940 -9.142016 -0.387866 0.056902 -13.841720 6.089844 -50.755016 -1.925425 1.499994 28.518981 2.425471 12.660997 -1.059773 2.178300 0.000000 -16.046300 10.801133 -2.465398 -2.418153 -0.247539 -7.449059 -4.135318 0.789234 -2.463292 33.828615 0.736483 13.530488 12.642679 4.240299 -0.000000 -95.510500 -6.046283 0.819071 2.645046 -1.955955 1.181796 -2.310168 -5.820773 1.152254 1.417827 8.041444 -4.690655 -6.167707 -2.661835 -0.214698 0.255369 0.000000 0.000000 0.000000 -7.532461 15.092233 1.864449 -64.387716 18.591362 5.987432 -4.239052 -23.474337 -0.023100 -9.549603 4.332150 -0.367585 -0.080116 -0.099640 -0.000000 0.000000 0.000000 0.000000 0.000000 0.000000 0.000000 10.417238 -0.049254 0.983772 43.123256 20.682798 15.258552 1.166626 68.696388 0.033645 12.077852 7.987303 0.883097 -0.135174 -0.253210 0.000000 0.000000 0.000000 0.000000 0.000000 0.000000 0.000000 
-10.294860 16.549358 -0.378634 -14.437001 75.198297 1.821185 -9.150223 -0.347905 0.023424 -14.139921 5.585665 -50.274359 -1.877696 1.550056 29.660567 2.513551 12.988008 -2.181274 1.951600 -0.000000 -15.006000 10.951520 -2.386965 -2.512397 -0.945041 -7.987670 -5.556607 0.439220 -2.656212 36.863815 0.491446 12.838959 15.408690 4.709900 -0.000000 -94.775100 -6.451108 0.713828 2.740135 -2.047170 1.094723 -2.305694 -5.907310 1.065630 1.370945 8.045953 -4.708966 -6.069811 -2.730859 -0.220633 0.276636 0.000000 0.000000 0.000000 -7.505774 14.625819 1.901564 -64.609740 17.497739 5.249712 -4.263110 -22.439598 -0.021944 -9.285512 4.496536 -0.369964 -0.081910 -0.093239 -0.000000 0.000000 0.000000 0.000000 0.000000 0.000000 0.000000 10.628847 -0.141010 0.892326 44.509502 19.886352 15.130402 1.204321 68.291053 0.033550 12.004619 7.975619 0.875926 -0.130518 -0.250705 0.000000 0.000000 0.000000 0.000000 0.000000 0.000000 0.000000 
